<svg xmlns="http://www.w3.org/2000/svg" xmlns:xlink="http://www.w3.org/1999/xlink" viewBox="0 0 1000 600"><defs><style>.cls-1{mask:url(#mask);filter:url(#luminosity-noclip-4);}.cls-2,.cls-4,.cls-6{mix-blend-mode:multiply;}.cls-2{fill:url(#linear-gradient);}.cls-3{mask:url(#mask-2);filter:url(#luminosity-noclip-5);}.cls-4{fill:url(#linear-gradient-2);}.cls-5{mask:url(#mask-3);filter:url(#luminosity-noclip-6);}.cls-6{fill:url(#linear-gradient-3);}.cls-7{fill:#3bb6d5;}.cls-8{mask:url(#mask-4);}.cls-9{fill:url(#linear-gradient-4);}.cls-10{mask:url(#mask-5);}.cls-11{fill:url(#linear-gradient-5);}.cls-12,.cls-15{fill:#163f59;}.cls-12{opacity:0.1;}.cls-13{fill:#4bc4e0;}.cls-14{opacity:0.3;}.cls-16{fill:#ad5c49;}.cls-17{fill:#fff;}.cls-18{fill:#194866;}.cls-19{fill:#dee7ec;}.cls-20{fill:#dbdac6;}.cls-21{fill:#15100c;}.cls-22{fill:#cdd5d7;}.cls-23{fill:#b7bec0;}.cls-24{fill:#c9c8b6;}.cls-25{fill:#edeef0;}.cls-26{fill:#161711;}.cls-27{fill:#854638;}.cls-28{fill:#b6c2c9;}.cls-29{fill:#d8e5ed;}.cls-30{fill:#879ba6;}.cls-31{fill:#d9e1e4;}.cls-32{fill:#f3f3f3;}.cls-33{fill:#a5b6be;}.cls-34{mask:url(#mask-6);}.cls-35{opacity:0.5;fill:url(#linear-gradient-6);}.cls-36{fill:#aec4db;}.cls-37{fill:#e4eef3;}.cls-38{fill:#c4d1e1;}.cls-39{fill:#d1dbea;}.cls-40{fill:#282723;}.cls-41{fill:#b0bfde;}.cls-42{fill:#bcd0e2;}.cls-43{filter:url(#luminosity-noclip-3);}.cls-44{filter:url(#luminosity-noclip-2);}.cls-45{filter:url(#luminosity-noclip);}</style><filter id="luminosity-noclip" x="793.69" y="-8492" width="193.33" height="32766" filterUnits="userSpaceOnUse" color-interpolation-filters="sRGB"><feFlood flood-color="#fff" result="bg"/><feBlend in="SourceGraphic" in2="bg"/></filter><mask id="mask" x="793.69" y="-8492" width="193.33" height="32766" maskUnits="userSpaceOnUse"><g class="cls-45"/></mask><linearGradient id="linear-gradient" x1="890.36" y1="398.5" x2="890.36" y2="455.48" gradientUnits="userSpaceOnUse"><stop offset="0" stop-color="#fff"/><stop offset="1"/></linearGradient><filter id="luminosity-noclip-2" x="53.69" y="-8492" width="193.33" height="32766" filterUnits="userSpaceOnUse" color-interpolation-filters="sRGB"><feFlood flood-color="#fff" result="bg"/><feBlend in="SourceGraphic" in2="bg"/></filter><mask id="mask-2" x="53.69" y="-8492" width="193.33" height="32766" maskUnits="userSpaceOnUse"><g class="cls-44"/></mask><linearGradient id="linear-gradient-2" x1="150.36" y1="408.56" x2="150.36" y2="456.57" xlink:href="#linear-gradient"/><filter id="luminosity-noclip-3" x="18.02" y="-8492" width="64.59" height="32766" filterUnits="userSpaceOnUse" color-interpolation-filters="sRGB"><feFlood flood-color="#fff" result="bg"/><feBlend in="SourceGraphic" in2="bg"/></filter><mask id="mask-3" x="18.02" y="-8492" width="64.59" height="32766" maskUnits="userSpaceOnUse"><g class="cls-43"/></mask><linearGradient id="linear-gradient-3" x1="18.02" y1="362.89" x2="82.61" y2="362.89" xlink:href="#linear-gradient"/><filter id="luminosity-noclip-4" x="793.69" y="430.37" width="193.33" height="27.62" filterUnits="userSpaceOnUse" color-interpolation-filters="sRGB"><feFlood flood-color="#fff" result="bg"/><feBlend in="SourceGraphic" in2="bg"/></filter><mask id="mask-4" x="793.69" y="430.37" width="193.33" height="27.62" maskUnits="userSpaceOnUse"><g class="cls-1"><path class="cls-2" d="M793.69,457.82s4.48-1.25,10.88-6.93c6.19-5.48,9.1-8.76,15.5-8.76s15.27,8.76,27.27,3.29,19.16-10.58,29.27-11.31S907,444,916,446.88s14.43-12.64,25.14-15.69c15.38-4.38,20.63,9.85,28.14,16.42,9.2,8.06,12,9.85,17.63,10.21S793.69,457.82,793.69,457.82Z"/></g></mask><linearGradient id="linear-gradient-4" x1="890.36" y1="398.5" x2="890.36" y2="455.48" gradientUnits="userSpaceOnUse"><stop offset="0" stop-color="#fff"/><stop offset="1" stop-color="#fff"/></linearGradient><filter id="luminosity-noclip-5" x="53.69" y="435.04" width="193.33" height="22.95" filterUnits="userSpaceOnUse" color-interpolation-filters="sRGB"><feFlood flood-color="#fff" result="bg"/><feBlend in="SourceGraphic" in2="bg"/></filter><mask id="mask-5" x="53.69" y="435.04" width="193.33" height="22.95" maskUnits="userSpaceOnUse"><g class="cls-3"><path class="cls-4" d="M53.69,457.85s4.48-1,10.88-5.76c6.19-4.56,9.1-7.28,15.5-7.28s15.27,7.28,27.27,2.73,19.16-8.79,29.27-9.4S167,446.33,176,448.75s14.43-10.5,25.14-13c15.38-3.64,20.63,8.18,28.14,13.64,9.2,6.7,12,8.19,17.63,8.49S53.69,457.85,53.69,457.85Z"/></g></mask><linearGradient id="linear-gradient-5" x1="150.36" y1="408.56" x2="150.36" y2="456.57" xlink:href="#linear-gradient-4"/><filter id="luminosity-noclip-6" x="18.02" y="349.45" width="64.59" height="26.89" filterUnits="userSpaceOnUse" color-interpolation-filters="sRGB"><feFlood flood-color="#fff" result="bg"/><feBlend in="SourceGraphic" in2="bg"/></filter><mask id="mask-6" x="18.02" y="349.45" width="64.59" height="26.89" maskUnits="userSpaceOnUse"><g class="cls-5"><path class="cls-6" d="M18.07,376.33c0-.37-.05-.74-.05-1.11a13.78,13.78,0,0,1,13.77-13.78H32a13.77,13.77,0,0,1,26.69-2.68,11,11,0,0,1,10,10.28,13.49,13.49,0,0,1,1.7-.11,13.77,13.77,0,0,1,12.21,7.39"/></g></mask><linearGradient id="linear-gradient-6" x1="18.02" y1="362.89" x2="82.61" y2="362.89" xlink:href="#linear-gradient-4"/></defs><title>register-bg1</title><g id="Layer_2" data-name="Layer 2"><rect class="cls-7" width="1000" height="600"/></g><g id="Layer_4" data-name="Layer 4"><g class="cls-8"><path class="cls-9" d="M793.69,457.82s4.48-1.25,10.88-6.93c6.19-5.48,9.1-8.76,15.5-8.76s15.27,8.76,27.27,3.29,19.16-10.58,29.27-11.31S907,444,916,446.88s14.43-12.64,25.14-15.69c15.38-4.38,20.63,9.85,28.14,16.42,9.2,8.06,12,9.85,17.63,10.21S793.69,457.82,793.69,457.82Z"/></g><g class="cls-10"><path class="cls-11" d="M53.69,457.85s4.48-1,10.88-5.76c6.19-4.56,9.1-7.28,15.5-7.28s15.27,7.28,27.27,2.73,19.16-8.79,29.27-9.4S167,446.33,176,448.75s14.43-10.5,25.14-13c15.38-3.64,20.63,8.18,28.14,13.64,9.2,6.7,12,8.19,17.63,8.49S53.69,457.85,53.69,457.85Z"/></g><rect class="cls-12" x="238.17" y="94.25" width="559.22" height="363.37"/><rect class="cls-13" x="238.17" y="94.25" width="559.22" height="29.02"/><g class="cls-14"><rect class="cls-15" x="247.57" y="104.96" width="8.43" height="7"/></g><g class="cls-14"><rect class="cls-15" x="264" y="104.96" width="8.43" height="7"/></g><g class="cls-14"><rect class="cls-15" x="280.43" y="104.96" width="8.43" height="7"/></g></g><g id="Layer_3" data-name="Layer 3"><path class="cls-16" d="M262,340.12a14.06,14.06,0,0,1-14.06,14.06l-3.51-6.68c-7.76,0-14-11.69-14-19.45v-5.27a14,14,0,0,1,14-14h3.51a14.06,14.06,0,0,1,14.06,14Z"/><path class="cls-16" d="M233.13,322.35a23.75,23.75,0,0,0-2.91-.22,21.39,21.39,0,0,1-.2,3.65,23.63,23.63,0,0,1-24.13,20.05,23.91,23.91,0,1,0,27.24-23.48Z"/><path class="cls-17" d="M256.33,314.06a27,27,0,0,1-.34,4c-1.42,9-6.9,15.88-12.9,16.72-.18,4.09-1.63,7.63-2,10.89-.78,7.08-8.62,7.83-8.62,7.83-1,6.3,23.77,15,23.26,14s-5.8-8.44-7.52-15.25a13.84,13.84,0,0,1,2.15-11.36,11.5,11.5,0,0,1,8.22-3.88,1.63,1.63,0,0,0,1.18-.53,9.76,9.76,0,0,0,.44-2.93V321.94A9.93,9.93,0,0,0,256.33,314.06Z"/><path class="cls-18" d="M271.58,443.29a1.33,1.33,0,0,0,.05-.19l-.11-.16a105.34,105.34,0,0,0-9.41-28.36c-3.2-6.18-9.65-12-12.49-15-7.33,4-14.57,2.14-21.42,7.33a62.23,62.23,0,0,0-2.13,9.22c-1,6-1.93,11.54-2.71,16.74-10.62,1-36.84,3-46.71,4.95-5.84,1.35-6.18,3.62-7.1,4.36.52,9.54,8.26,14.93,12.95,22.57.83,1.36,63.58.18,74.36.73C255.4,466.22,278.05,466.4,271.58,443.29Z"/><path class="cls-19" d="M173.59,455.71c-1.72-2-2.68-4.48-4-6.7-1-4.26-1-7.13.24-8.14,4.64-3.83,20.47,4.15,60.26,63.82,8.67,13,26.62,38.13,21.26,34.71-9.17-5.83-11.47-13-17.3-19C186.44,470.88,181.32,464.67,173.59,455.71Z"/><path class="cls-15" d="M253.58,537.55l-7.05-11.3a3.2,3.2,0,0,0-2.85-1.62l5.43,8.69a4,4,0,0,1-.57,5.06A2.62,2.62,0,0,1,247,539l1.62,2.59a2.94,2.94,0,0,0,4.39,1A4,4,0,0,0,253.58,537.55Z"/><path class="cls-17" d="M254.94,390l10.95-19.42c4.06-5.78,2-13.2-4.5-14.85l-34.26-8c-4.12-.67-11,5-9.78,12.1l7,23.32Z"/><path class="cls-15" d="M221.68,351.87c4.57,21.2-6.84,58.95-6.84,58.95s-6.56,1.35-7.81-2.23c-1.58-4.54,2.5-15.38,5-44.92C213.66,345.38,220.92,348.33,221.68,351.87Z"/><path class="cls-15" d="M268,360.55c2.92,25.86,10.06,59.1,10.06,59.1s-7.1,5.73-9.39,2.53c-2.91-4.07-5.61-19.11-8.77-47.69C257.94,356.8,267.58,356.9,268,360.55Z"/><path class="cls-20" d="M227,397.45c-.06,2.67,1.87,8.72,3.89,8.76l20.3-1.59c2,0,7-1.7,7.07-4.37l.17-9c.05-2.66-1.54-4.86-3.57-4.9l-25.17-7c-2,0-3.71,2.09-3.77,4.76Z"/><path class="cls-21" d="M228.56,406.53c0,.29,1.43.44,3.15.33l19.49-1.21c1.72-.11,3.1-.44,3.08-.73l-.06-1.11c0-.29-1.43-.44-3.16-.34l-19.48,1.22c-1.73.1-3.1.43-3.08.72Z"/><path class="cls-20" d="M221.65,357.69a15.74,15.74,0,0,1,1.52-3.47c17.59,13.54,30.61,8.59,39.92,6.78.07.55.11,1.11.13,1.7.09,6.39-.62,12.76-.6,19.15.05,5.08-7.27,9.24-10.7,9.24-12.8.06-15.67-.81-27.84-4.61-3.26-1-9.17-6.63-7.72-11.25Q219.06,366.48,221.65,357.69Z"/><path class="cls-18" d="M253.76,354s12,.11,14.13,6.6-2.61,15.6-2.61,15.6-3.86,11.74-5,18.15,2.68,12.68,1.46,11.37c-.25-.26-3.29-.09-8-2.54s-1.72-11.12-1.13-13.93,3.49-16.65,3-19S253.76,354,253.76,354Z"/><path class="cls-18" d="M214.81,356.53s-1-5.39,1.64-7.42c3.82-3,12.72-2.23,15.58-1.37a38.82,38.82,0,0,1,4.78,1.74s-10.24,3.19-10.6,21.53a81.16,81.16,0,0,0,1.62,14.47c1,4.92,1,14.45,1,14.45s-6.06.86-6.37,1.63-.42-5.68-4.28-12S214.81,356.53,214.81,356.53Z"/><path class="cls-15" d="M226.84,347.09c-5.09,3.9-8.21,7.29-8.29,28.63,0,3.46.91,9.8,1.36,15.73-.26-.62-2.19-3.74-2.52-4.36-3.37-6.28-2.61-30.56-2.61-30.56s-.44-4.84,1.86-6.88S223.44,346.72,226.84,347.09Z"/><path class="cls-17" d="M184.65,460.13c-1.37-2.17-1.79-4.78-2.64-7.13-.19-4.3.55-6.8,1.73-7.87,5.34-4.85,17.09,4.14,36.13,43.29,9.59,19.73,17.26,38.1,30.22,48.66,1.9,1.54,2.39,1.75,3,3.54,1.88,5.55,1,12.48.81,12.26-2.87-2.63-8.11-11.41-15-20C224,514.38,202,487.53,184.65,460.13Z"/><path class="cls-18" d="M257.63,548.79,251.51,537a3.22,3.22,0,0,0-2.71-1.85l4.71,9.12a4,4,0,0,1-1,5,2.63,2.63,0,0,1-1.58.45l1.41,2.72a3,3,0,0,0,4.29,1.4A4,4,0,0,0,257.63,548.79Z"/><path class="cls-19" d="M306.51,460.89s2.09,2.05,2.36,3.49c.18,1,.26,5.86.26,5.86a5.72,5.72,0,0,1-1.22-3.32A19.13,19.13,0,0,0,306.51,460.89Z"/><path class="cls-19" d="M307.66,464c1.43,1.14,1.93,3.21,1.93,5.77a4.2,4.2,0,0,0,1.28,3.38,29.62,29.62,0,0,0-.25-5.36c-.11-1.06-.28-2.13-.47-3.17C309.52,461.2,304,461.08,307.66,464Z"/><path class="cls-17" d="M304.5,458.76c-.23,1.26,1,3.36.61,4.07a8.91,8.91,0,0,1-2.28,2.85c2.59.79,4.09-2.74,5.56-3.52S305.11,455.48,304.5,458.76Z"/><path class="cls-17" d="M294.54,447.37c3.78,3,8.18,6.33,9.54,8.78,1.94,3.49,1.41,6.14,3.58,7.87a7.62,7.62,0,0,1,.63.64c.57.58,1.31,1.13,1.51,1.4s.78,1.25.71.79c-.59-4.12-1.65-8.66-2.27-9.46-1.26-1.63-8.63-10.38-12-13.06C292.36,441.3,289.44,443.33,294.54,447.37Z"/><path class="cls-17" d="M307.88,463.69s.63-.78,1.26-.32a14,14,0,0,1,2.74,3.78c.46.9,2,5.52,2,5.52a5.69,5.69,0,0,1-2.15-2.81C310.81,467.15,307.88,463.69,307.88,463.69Z"/><path class="cls-17" d="M291.62,438.65c-3.31-.11-11.2-5.07-11.93-3.48C285.21,443,307,455.92,307,455.92Z"/><path class="cls-15" d="M293.48,443.14a3.06,3.06,0,0,0-1.91,3.11c-5.76-4.41-21.85-16.75-23.29-24.91-.44-2.46,4.31-8.7,11.76.22,9.14,11,13.53,17.24,15.23,21.09A4,4,0,0,0,293.48,443.14Z"/><path class="cls-19" d="M195.52,367.24s-.92.38-1.25-.32a13.85,13.85,0,0,1-.63-4.65c0-1,.87-5.83.87-5.83a5.68,5.68,0,0,1,.57,3.51C194.58,362.77,195.52,367.24,195.52,367.24Z"/><path class="cls-19" d="M195.47,366.57c-.72-1.7-.18-3.76,1-6a4.17,4.17,0,0,0,.48-3.59,29.47,29.47,0,0,0-2.33,4.86,9,9,0,0,0-.8,3.16C193.8,368.17,197.33,370.93,195.47,366.57Z"/><path class="cls-17" d="M212.12,406.53c.46-7.31-11.81-26.6-11.81-26.6s-6.74-5.82,4.34,22.51C208,410.94,212,408.33,212.12,406.53Z"/><path class="cls-17" d="M195.61,364.56l-.81.45-.69,3.1s1.1,5.63,2.29,7.6,2.65,10.65,3.12,11.63,5.53,1.2,5.53,1.2-3.63-8.35-4.77-11.78-1.11-8.9-1.51-10.27c-.69-2.32-.91-3.54-.91-3.54s-1.19.54-.33,4.25c.23,1-1,.72-1,.72Z"/><path class="cls-17" d="M195.17,368.51s-.74-2.83-.21-4.22c.36-1,2.83-5.17,2.83-5.17a5.77,5.77,0,0,1-.68,3.49A19.32,19.32,0,0,0,195.17,368.51Z"/><path class="cls-19" d="M196.55,367.92s.8.23,1.08,0a4.17,4.17,0,0,1-.12.76c-.08.48,0,3.78,0,3.78a27.24,27.24,0,0,0-.82-3,12.81,12.81,0,0,1-.52-2.23c0-.11,0-.28,0-.47Z"/><path class="cls-19" d="M197.53,367.2c-.57-2.49-.23-3.56.06-4,.14.58.37,1.53.76,2.85a18.81,18.81,0,0,1,.33,2.65,4.47,4.47,0,0,0-1.31,2.36c-.08.35-.62-1.83-.65-3.14C197,368,197.71,368,197.53,367.2Z"/><path class="cls-15" d="M202.83,397.06c0-1,5.53-2.35,6.49-.7l.88,1.19s7.16,10.49,1.4,13.66C211.6,411.21,204.91,411.9,202.83,397.06Z"/><rect class="cls-22" x="179.23" y="436.83" width="59.85" height="1.23"/><path class="cls-22" d="M212.66,436.76a1.63,1.63,0,0,1-1.51,1.73H180.46c-.84,0-2-.61-3-3l-15.18-27.71a1.58,1.58,0,0,1,1.77-1.73l31.5.94a3,3,0,0,1,2,2.1Z"/><path class="cls-23" d="M209,438.06h30.28a11.19,11.19,0,0,1-4.9.95H183.89a11.2,11.2,0,0,1-4.91-.95Z"/><path class="cls-19" d="M856.47,458c0-.24,0-.49,0-.74a9.14,9.14,0,0,1,9.14-9.14h.14a9.14,9.14,0,0,1,17.72-1.78,7.27,7.27,0,0,1,6.63,6.82,8.47,8.47,0,0,1,1.13-.07,9.13,9.13,0,0,1,8.1,4.9"/><path class="cls-19" d="M861.8,412.32c-1.75-3.49-5-.38-7.53-.17-2.76.23-2-1.63-1.46-4.41s4.22-3.49,7.74-7-.76-10.23-4-9.76-2.76,3.6-5,3.72c-3,.15-2.88-1.51-2.76-3.72.27-4.7,1.76-8.6.76-12.09-.65-2.24-3-4.26-5.33-5.07l0,0a4.68,4.68,0,0,0-3.4,0l-.05,0c-2.3.81-4.68,2.83-5.33,5.07-1,3.49.49,7.39.75,12.09.13,2.21.26,3.87-2.76,3.72-2.26-.12-1.75-3.26-5-3.72s-7.53,6.27-4,9.76,7.24,4.19,7.74,7,1.29,4.64-1.47,4.41c-2.5-.21-5.77-3.32-7.52.17s.5,13.51,10,15.61c5.37,1.17,7.56,4.24,9.34,4,1.78.27,4-2.8,9.34-4C861.3,425.83,863.56,415.81,861.8,412.32Z"/><rect class="cls-18" x="842.16" y="386.39" width="0.54" height="71.59"/><polygon class="cls-18" points="842.67 410.17 842.31 409.76 853.34 399.69 853.7 400.1 842.67 410.17"/><rect class="cls-18" x="840.84" y="421.43" width="12.58" height="0.54" transform="translate(-62.88 681.23) rotate(-42.38)"/><rect class="cls-18" x="836.58" y="397.46" width="0.54" height="14.93" transform="translate(-25.92 751.21) rotate(-47.69)"/><rect class="cls-18" x="837.45" y="415.41" width="0.54" height="12.58" transform="translate(-38.46 756.25) rotate(-47.62)"/><path class="cls-19" d="M121.8,412.32c-1.75-3.49-5-.38-7.53-.17-2.76.23-2-1.63-1.46-4.41s4.22-3.49,7.74-7-.76-10.23-4-9.76-2.76,3.6-5,3.72c-3,.15-2.88-1.51-2.76-3.72.27-4.7,1.76-8.6.76-12.09-.65-2.24-3-4.26-5.33-5.07l-.05,0a4.68,4.68,0,0,0-3.4,0l0,0c-2.3.81-4.68,2.83-5.33,5.07-1,3.49.49,7.39.75,12.09.13,2.21.26,3.87-2.76,3.72-2.26-.12-1.75-3.26-5-3.72s-7.53,6.27-4,9.76,7.24,4.19,7.74,7,1.29,4.64-1.47,4.41c-2.5-.21-5.77-3.32-7.52.17s.5,13.51,10,15.61c5.37,1.17,7.56,4.24,9.34,4,1.78.27,4-2.8,9.34-4C121.3,425.83,123.56,415.81,121.8,412.32Z"/><rect class="cls-18" x="102.16" y="386.39" width="0.54" height="71.59"/><polygon class="cls-18" points="102.67 410.17 102.31 409.76 113.33 399.69 113.7 400.1 102.67 410.17"/><rect class="cls-18" x="100.84" y="421.43" width="12.58" height="0.54" transform="translate(-256.26 182.42) rotate(-42.38)"/><rect class="cls-18" x="96.58" y="397.46" width="0.54" height="14.93" transform="translate(-267.79 203.98) rotate(-47.69)"/><rect class="cls-18" x="97.45" y="415.41" width="0.54" height="12.58" transform="translate(-279.65 209.63) rotate(-47.62)"/><path class="cls-17" d="M899.5,382.15c-2.07-4.45-5.94-2.94-8.89-2.67-3.26.3-1.19-2.08-.59-5.63s3.85-4.45,8-8.9-.89-13-4.74-12.45-3.26,4.6-5.93,4.75c-3.57.2-3.41-1.93-3.26-4.75.31-6,2.07-11,.89-15.41-.76-2.85-3.58-5.43-6.3-6.46l0-.06a5.16,5.16,0,0,0-4,0l-.06.06c-2.71,1-5.53,3.61-6.29,6.46-1.18,4.45.58,9.43.89,15.41.15,2.82.3,4.95-3.26,4.75-2.67-.15-2.07-4.15-5.93-4.75s-8.89,8-4.74,12.45,7.41,5.34,8,8.9,2.67,5.93-.59,5.63c-3-.27-6.82-1.78-8.89,2.67s.59,16,11.85,18.67c6.35,1.5,8.93,1.74,11,1.39,2.11.35,4.69.11,11-1.39C898.91,398.15,901.58,386.59,899.5,382.15Z"/><rect class="cls-18" x="876.32" y="345.99" width="0.59" height="112"/><polygon class="cls-18" points="876.88 371.9 876.48 371.46 888.5 360.48 888.9 360.92 876.88 371.9"/><rect class="cls-18" x="874.89" y="390.47" width="13.71" height="0.59" transform="translate(-32.91 696.66) rotate(-42.39)"/><polygon class="cls-18" points="876.35 371.9 876.75 371.46 864.73 360.48 864.33 360.92 876.35 371.9"/><rect class="cls-18" x="871.19" y="383.91" width="0.59" height="13.71" transform="translate(-4.73 770.81) rotate(-47.6)"/><path class="cls-18" d="M756.64,335.3a17.31,17.31,0,0,1,1.87-1.14,16.22,16.22,0,0,0,1.38,2.37,17.69,17.69,0,0,0,22.92,5.15,17.91,17.91,0,1,1-26.17-6.38Z"/><path class="cls-18" d="M743.33,365.33a13.49,13.49,0,0,0,18.8,3.24l-.94-7.18c6.09-4.3,4.55-16.95.26-23l-2.92-4.13a13.49,13.49,0,0,0-18.8-3.26l-2.76,2a13.49,13.49,0,0,0-3.25,18.8Z"/><path class="cls-24" d="M758.07,367.55l-16.55,56.76s1.53,5.19,6.24.11S760.37,404,768,383.07C774.59,365.15,762.23,366.35,758.07,367.55Z"/><path class="cls-17" d="M745.48,424.52s1.8,2.89-13.35,13-39.68,21.57-39.68,21.57l33-26.31S738.48,423.27,745.48,424.52Z"/><path class="cls-17" d="M705.05,452.16c-7.07,5-7.8,10.36-9.89,13.34a62.23,62.23,0,0,0-3.81,6.46c-.39-3.85,1.83-5.55,2.34-7.25s.53-1-2.11.58c-1.5.92-2.37,5-3.28,7.53a7.34,7.34,0,0,1-1.7,3,35.82,35.82,0,0,1,1.17-7.11,44,44,0,0,1,4-9.47c1.12-1.61,5.75-5.1,9.41-7.09C705.26,449.91,710.15,448.54,705.05,452.16Z"/><path class="cls-17" d="M692.19,459.09s-4.52,5.08-5,6.4c-.34.92-1.21,5.51-1.21,5.51a9.21,9.21,0,0,0,2.26-3.56C688.7,465.62,692.19,459.09,692.19,459.09Z"/><path class="cls-24" d="M710.11,444.59c6.25-6.25,16.73-14,30.17-21.14,4-2.12,8-2.51,11.83-4.14-.61,2.1-.76,4.39-3.25,7-5.91,6.07-18.09,13.26-31.1,20.17q-3.13,1.65-6.19,3.12A46.11,46.11,0,0,1,710.11,444.59Z"/><polygon class="cls-25" points="746.93 437.85 750.04 465.48 735.83 469.33 728.24 469.65 742.87 462.11 738.17 436.58 746.93 437.85"/><path class="cls-26" d="M750.32,469.16l-3,.26-1.63-2.05-11.41,3.36-9.71.58a1.76,1.76,0,0,1,.39-1.1c1.42-1.28,8.53-3.5,8.53-3.5s-.26,2.19.66,2.41,9.69-2.53,11.75-3.36c3.54-1.43,4.35-2.55,4.57-2.36C751.06,463.91,750.32,469.16,750.32,469.16Z"/><path class="cls-27" d="M747.05,414.82l2.67,24.81-13.78-1-3.49-37.1s2.31-9.12,8.53-6.6C745,396.55,747.05,414.82,747.05,414.82Z"/><path class="cls-27" d="M753,404.36l20.39,36.81s9.48,10,6.25,12.22c-4.66,3.25-18.47-1.08-21.06-3.36-5.12-4.53-1.24-2-13.41-23-11.12-19.18-15.92-27-7.41-32.45C745.65,389.48,753,404.36,753,404.36Z"/><path class="cls-25" d="M828.9,462s-33.77.27-33,.35,5.61-8.47,5.61-8.47l22.83,4Z"/><polygon class="cls-25" points="819.74 461.19 822.48 455.56 836.81 458.94 843.64 462.27 827.18 461.93 819.74 461.19"/><path class="cls-26" d="M824,452.19l2.75,1.19.46,2.58,11.63,2.48,8.82,4.12s-.37.66-.87.78c-1.86.45-9.16-1-9.16-1s1.27-1.8.56-2.43-9.72-2.39-11.93-2.64c-3.8-.43-5,.17-5.15-.1C820.84,456.45,824,452.19,824,452.19Z"/><path class="cls-16" d="M754,447.5l52.33,3.91-4.6,12.73-66-2.68s-8.94-6-4.75-12.33C733.38,445.43,754,447.5,754,447.5Z"/><path class="cls-16" d="M742.38,442.13l49-11.06s14.23-7,16.15-3.14c2.78,5.56-5.74,18.4-9.1,20.42-6.66,4-2.7.74-30.78,7.6C742,462.21,731.52,465,727,455,722.8,445.66,742.38,442.13,742.38,442.13Z"/><path class="cls-20" d="M773.1,435.19c8.59-4.48,35.11,12.7,37.73,0l-9.71-49.31c-11.21-23.91-17.93-26.15-28.77-25l-4.77,0-3.4,3-.3-1.51.26-1.11c-6.14,1.95-5.13,8.82-5.43,16.11C757.79,399.7,773.1,435.19,773.1,435.19Z"/><path class="cls-24" d="M777.05,419.26s-3.06-3.35-17.49,9.49a223.58,223.58,0,0,0-18,18.47c-7.23,8.18,4.39,3.49,4.39,3.49l18-12.18S777.3,427.83,777.05,419.26Z"/><path class="cls-24" d="M785.68,372.72c4.54,12.06-7.77,49-7.77,49s-8.5,13.6-9.3-.46c-.34-6,4-23.35,5.68-38.87S784.56,369.75,785.68,372.72Z"/><path class="cls-17" d="M719.18,472.91l.27-4.43,1.19-3.42,3.89-4.43s4.69-4.16,7-5.09,9.45-7.05,10.51-7.6,3.65,1.78,3.65,1.78-6.81,5.25-10.09,7.48-6.86,7-8.11,7.93a16.71,16.71,0,0,1-2.48,1.5c-1.07.54-1.12,0-.3-.81s1.75-1.77,2.17-2.12c.85-.7-.39-1.28-.39-1.28s-4.38,3.74-5.11,5.19a7,7,0,0,0-.86,3C720.36,472.53,719.18,472.91,719.18,472.91Z"/><path class="cls-17" d="M733.3,341.76a26.71,26.71,0,0,0,2.46,2.93c6.11,6.29,14.21,8.63,19.37,6a41.22,41.22,0,0,0,7.59,7.43c2.85,2.18,8.2,2.82,8.2,2.82,4.28,4.38-7.42,23.51-7.59,22.43s-.12-9.83-2.53-16.13a13.34,13.34,0,0,0-8-7.72,11.08,11.08,0,0,0-8.6,1.5,1.53,1.53,0,0,1-1.22.25,9.91,9.91,0,0,1-2-2.06l-6.41-9.1A9.53,9.53,0,0,1,733.3,341.76Z"/><path class="cls-24" d="M763.38,386.59a417.24,417.24,0,0,0,10.35,47l2.43,1.07a456,456,0,0,1-10.76-50.29C764.72,384.56,764,386.3,763.38,386.59Z"/><path class="cls-28" d="M734.43,474.79l0-.06,0-1.88H656.6v1.88a.11.11,0,0,0,0,.06l.2.35c1,1.63,2.8,1.92,4.85,1.92h67.73c2,0,3.85-.29,4.85-1.92Z"/><path class="cls-29" d="M715.67,475.1s0,0,0,0l.2.29a3.16,3.16,0,0,0,1.13,1h11.84c2,0,3.7-.24,4.66-1.56l.19-.28,0-.05,0-.93h-18Z"/><rect class="cls-30" x="666.28" y="473.28" width="38.89" height="1.33"/><path class="cls-31" d="M715.24,472.78l-10.09-38.25a2.54,2.54,0,0,0-2.31-1.82h-54.6a1.35,1.35,0,0,0-1.34,1.82L657,472.78Z"/><path class="cls-28" d="M684.36,452.74a2.63,2.63,0,0,1-2.6,3.54,4.94,4.94,0,0,1-4.47-3.54,2.63,2.63,0,0,1,2.61-3.53A4.91,4.91,0,0,1,684.36,452.74Z"/><rect class="cls-32" x="431.09" y="276.39" width="173.38" height="28.41"/><rect class="cls-33" x="437.53" y="289.6" width="13.93" height="2"/><line class="cls-17" x1="441.01" y1="296.63" x2="447.98" y2="284.56"/><rect class="cls-33" x="437.53" y="289.6" width="13.94" height="2" transform="translate(-29.4 530.29) rotate(-60.01)"/><line class="cls-17" x1="447.98" y1="296.63" x2="441.01" y2="284.56"/><rect class="cls-33" x="443.5" y="283.63" width="2" height="13.94" transform="translate(-85.75 261.13) rotate(-29.99)"/><rect class="cls-33" x="457.39" y="289.6" width="13.93" height="2"/><line class="cls-17" x1="460.87" y1="296.63" x2="467.84" y2="284.56"/><rect class="cls-33" x="457.39" y="289.6" width="13.94" height="2" transform="translate(-19.47 547.48) rotate(-60.01)"/><line class="cls-17" x1="467.84" y1="296.63" x2="460.87" y2="284.56"/><rect class="cls-33" x="463.35" y="283.63" width="2" height="13.94" transform="translate(-83.09 271.06) rotate(-29.99)"/><rect class="cls-33" x="477.25" y="289.6" width="13.93" height="2"/><line class="cls-17" x1="480.73" y1="296.63" x2="487.7" y2="284.56"/><rect class="cls-33" x="477.24" y="289.6" width="13.94" height="2" transform="translate(-9.54 564.68) rotate(-60.01)"/><line class="cls-17" x1="487.7" y1="296.63" x2="480.73" y2="284.56"/><rect class="cls-33" x="483.21" y="283.63" width="2" height="13.94" transform="translate(-80.43 281.02) rotate(-30)"/><rect class="cls-33" x="497.1" y="289.6" width="13.93" height="2"/><line class="cls-17" x1="500.59" y1="296.63" x2="507.55" y2="284.56"/><rect class="cls-33" x="497.1" y="289.6" width="13.94" height="2" transform="translate(0.39 581.88) rotate(-60.01)"/><line class="cls-17" x1="507.55" y1="296.63" x2="500.59" y2="284.56"/><rect class="cls-33" x="503.07" y="283.63" width="2" height="13.94" transform="translate(-77.77 290.92) rotate(-29.99)"/><rect class="cls-33" x="516.96" y="289.6" width="13.93" height="2"/><line class="cls-17" x1="520.44" y1="296.63" x2="527.41" y2="284.56"/><rect class="cls-33" x="516.96" y="289.6" width="13.93" height="2" transform="translate(10.32 599.08) rotate(-60.01)"/><line class="cls-17" x1="527.41" y1="296.63" x2="520.44" y2="284.56"/><rect class="cls-33" x="522.93" y="283.63" width="2" height="13.93" transform="translate(-75.11 300.77) rotate(-29.99)"/><rect class="cls-32" x="431.09" y="235.79" width="173.38" height="28.41"/><rect class="cls-33" x="440.41" y="249.98" width="107.36" height="2"/><circle class="cls-18" cx="517.78" cy="185.25" r="34.5"/><path class="cls-17" d="M534.78,203.38v-4.53a9.07,9.07,0,0,0-9.07-9.07H509.84a9.07,9.07,0,0,0-9.06,9.07v4.53Z"/><path class="cls-17" d="M525.71,175.05a7.94,7.94,0,1,0-7.93,7.93A7.94,7.94,0,0,0,525.71,175.05Z"/><rect class="cls-13" x="431.09" y="316.99" width="173.38" height="28.41"/><path d="M482.82,328.1a2.82,2.82,0,0,0-2.23.94,3.84,3.84,0,0,0-.82,2.58,3.92,3.92,0,0,0,.79,2.6,2.8,2.8,0,0,0,2.25.91,7.38,7.38,0,0,0,2-.32v.87a6.07,6.07,0,0,1-2.19.34,3.75,3.75,0,0,1-2.93-1.15,4.75,4.75,0,0,1-1-3.26,5.12,5.12,0,0,1,.49-2.32,3.56,3.56,0,0,1,1.43-1.54,4.32,4.32,0,0,1,2.2-.54,5.46,5.46,0,0,1,2.36.49l-.43.86A4.41,4.41,0,0,0,482.82,328.1Z"/><path class="cls-17" d="M482.66,336.52a4.19,4.19,0,0,1-3.3-1.32,5.18,5.18,0,0,1-1.15-3.59,5.73,5.73,0,0,1,.54-2.55,4,4,0,0,1,1.63-1.74,4.87,4.87,0,0,1,2.45-.61,5.86,5.86,0,0,1,2.58.54l.45.22-.86,1.75-.45-.21a4.09,4.09,0,0,0-1.73-.41,2.29,2.29,0,0,0-1.85.77,3.35,3.35,0,0,0-.7,2.25,3.42,3.42,0,0,0,.67,2.27c.71.83,2,.94,3.78.44l.63-.18V336l-.32.12A6.9,6.9,0,0,1,482.66,336.52Zm-2.33-7.93a3,3,0,0,0-.68.92,4.71,4.71,0,0,0-.44,2.1,4.28,4.28,0,0,0,.9,2.93,2.72,2.72,0,0,0,.75.59,3.17,3.17,0,0,1-.68-.59,5.06,5.06,0,0,1,0-5.83Z"/><path d="M496.56,331.61a4.73,4.73,0,0,1-1,3.23,4.19,4.19,0,0,1-5.81,0,4.73,4.73,0,0,1-1-3.27,4.69,4.69,0,0,1,1-3.24,3.72,3.72,0,0,1,2.93-1.15,3.64,3.64,0,0,1,2.88,1.17A4.72,4.72,0,0,1,496.56,331.61Zm-6.83,0a4.09,4.09,0,0,0,.74,2.64,2.66,2.66,0,0,0,2.16.89,2.6,2.6,0,0,0,2.15-.89,5.18,5.18,0,0,0,0-5.27,2.61,2.61,0,0,0-2.14-.89,2.66,2.66,0,0,0-2.17.9A4.05,4.05,0,0,0,489.73,331.61Z"/><path class="cls-17" d="M492.63,336.52a4.2,4.2,0,0,1-3.3-1.33,5.27,5.27,0,0,1-1.15-3.6,5.18,5.18,0,0,1,1.16-3.57,4.19,4.19,0,0,1,3.3-1.32,4.12,4.12,0,0,1,3.25,1.34,6,6,0,0,1,0,7.13A4.16,4.16,0,0,1,492.63,336.52Zm0-7.93a2.14,2.14,0,0,0-1.78.72,3.55,3.55,0,0,0-.63,2.3,3.61,3.61,0,0,0,.63,2.32,2.55,2.55,0,0,0,3.53,0,4.7,4.7,0,0,0,0-4.63A2.1,2.1,0,0,0,492.64,328.59Zm-2.61.15a4.29,4.29,0,0,0-.85,2.85,4.59,4.59,0,0,0,.69,2.67,5,5,0,0,1-.64-2.65A4.6,4.6,0,0,1,490,328.74Zm5.55.59a5.46,5.46,0,0,1,.42,2.28,5.77,5.77,0,0,1-.35,2.12,5,5,0,0,0,.41-2.12A4.87,4.87,0,0,0,495.58,329.33Z"/><path d="M507.56,335.9h-1.14l-4.68-7.19h-.05c.07.84.1,1.62.1,2.32v4.87h-.92v-8.57H502l4.67,7.16h0c0-.1,0-.44,0-1s0-1,0-1.23v-4.92h.93Z"/><path class="cls-17" d="M508.06,336.4h-1.91l-3.87-5.94c0,.19,0,.39,0,.57v5.37h-1.92v-9.57h1.89l3.87,5.93a4.63,4.63,0,0,1,0-.53v-5.4h1.93Zm-1.37-1h.37V335l-.66,0Zm-5.32-7.19H502l-.26-.39h-.35Z"/><path d="M515,335.9h-1v-7.68h-2.72v-.89h6.42v.89H515Z"/><polygon class="cls-17" points="515.45 336.4 513.46 336.4 513.46 328.72 510.74 328.72 510.74 326.83 518.16 326.83 518.16 328.72 515.45 328.72 515.45 336.4"/><path d="M521.35,335.9v-8.57h1v8.57Z"/><rect class="cls-17" x="520.85" y="326.83" width="2" height="9.57"/><path d="M533.79,335.9h-1.14L528,328.71h-.05c.07.84.1,1.62.1,2.32v4.87h-.92v-8.57h1.12l4.67,7.16h.05c0-.1,0-.44-.05-1s0-1,0-1.23v-4.92h.93Z"/><path class="cls-17" d="M534.29,336.4h-1.91l-3.87-5.94c0,.19,0,.39,0,.57v5.37H526.6v-9.57h1.89l3.87,5.93c0-.22,0-.39,0-.53v-5.4h1.93Zm-1.37-1h.37V335l-.66,0Zm-5.32-7.19h.61l-.26-.39h-.35Z"/><path d="M545,327.33v5.55a3,3,0,0,1-.88,2.3,3.39,3.39,0,0,1-2.43.84,3.24,3.24,0,0,1-2.4-.85,3.13,3.13,0,0,1-.84-2.32v-5.52h1v5.59a2.2,2.2,0,0,0,.59,1.65,2.36,2.36,0,0,0,1.72.57,2.28,2.28,0,0,0,1.67-.57,2.24,2.24,0,0,0,.59-1.66v-5.58Z"/><path class="cls-17" d="M541.7,336.52a3.78,3.78,0,0,1-2.75-1,3.63,3.63,0,0,1-1-2.68v-6h2v6.09a1.72,1.72,0,0,0,.44,1.29,1.88,1.88,0,0,0,1.37.43,1.79,1.79,0,0,0,1.32-.43,1.71,1.71,0,0,0,.44-1.3v-6.08h2v6.05a3.5,3.5,0,0,1-1,2.66A3.86,3.86,0,0,1,541.7,336.52Z"/><path d="M554.46,335.9h-4.78v-8.57h4.78v.89h-3.78V331h3.55v.88h-3.55V335h3.78Z"/><polygon class="cls-17" points="554.96 336.4 549.18 336.4 549.18 326.83 554.96 326.83 554.96 328.72 551.18 328.72 551.18 330.48 554.73 330.48 554.73 332.36 551.18 332.36 551.18 334.51 554.96 334.51 554.96 336.4"/><path class="cls-17" d="M958.28,330.26a15.87,15.87,0,1,1-15.86-15.86A15.87,15.87,0,0,1,958.28,330.26Z"/><g class="cls-34"><path class="cls-35" d="M18.07,376.33c0-.37-.05-.74-.05-1.11a13.78,13.78,0,0,1,13.77-13.78H32a13.77,13.77,0,0,1,26.69-2.68,11,11,0,0,1,10,10.28,13.49,13.49,0,0,1,1.7-.11,13.77,13.77,0,0,1,12.21,7.39"/></g><path class="cls-18" d="M304.6,379.46a24.15,24.15,0,1,0,27.93-19A23.9,23.9,0,0,0,304.6,379.46Z"/><path class="cls-18" d="M326.15,359.1A22.35,22.35,0,1,0,352,341.5,22.12,22.12,0,0,0,326.15,359.1Z"/><path class="cls-18" d="M336.7,341.22c-2,11.34,4.94,22.09,15.57,24s20.9-5.76,22.92-17.11-4.94-22.09-15.57-24S338.73,329.87,336.7,341.22Z"/><path class="cls-15" d="M336.4,369c-2.59,14.46,7.29,28.32,22.05,31s28.83-6.94,31.42-21.39-7.29-28.32-22.05-31S339,354.55,336.4,369Z"/><path class="cls-15" d="M313.92,377.47a18.16,18.16,0,1,0,21-14.3A18,18,0,0,0,313.92,377.47Z"/><path class="cls-15" d="M329.75,362a18.16,18.16,0,1,0,21-14.31A18,18,0,0,0,329.75,362Z"/><path class="cls-17" d="M350.91,331.15c.32,0,.66,0,1,0,0,3.9,2.19,8.91,6.22,13.25a27.77,27.77,0,0,0,3.05,2.84l-.63,3.54a10.1,10.1,0,0,1-19.86-3.55l1.42-8A21.62,21.62,0,0,0,350.91,331.15Z"/><path class="cls-17" d="M333.67,372.13c-.26-1.56-1.77-4.29-5.47-2.94-3.89,1.41-6.48,5-7,14.71a101.54,101.54,0,0,1-4,22.88c-1.51,5.38,5.38,15.81,9.25,9.42s6.06-22.37,6.4-26.74S333.83,373.14,333.67,372.13Z"/><path class="cls-17" d="M368,356.49s-8.58,33.13-4.71,53.82c2.74,14.63,8,4.73,12.36,3.28a83.18,83.18,0,0,1-.25-8.66c0-11.29.39-21.66,1.35-27.92,1.51-9.93,1.51-16.15-.51-18.51S372.52,354.8,368,356.49Z"/><path class="cls-17" d="M373.87,409.64s.34-2.69,4,12.62S384,464,387.83,469s5.22,2,4.54,2.69c-2.39,2.39-3.36,4.71-5.88,4.21s-8.08-10.6-13.8-28.09-9.25-29.44-8.24-34.82S373.36,408.3,373.87,409.64Z"/><path class="cls-17" d="M341.49,369.44s13.2-4.47,15-5.52-4.9,0,.7-11c.07-.14-10.16-6-11.07-6.21s-1.82,2.26-1.82,2.26A34.7,34.7,0,0,1,341.49,369.44Z"/><path class="cls-17" d="M381.1,468.68s2.52,6.23,4,6.73,5.55,0,8.07-.84,4.38-2,5.72-2.19,8.92,2.25,11.11,2.36,3,.11,4.2-.34.79-1.34.79-1.34-1.07-.11-4.38-.79c-4.65-.94-11.1-4.14-12.78-5-2.92-1.57-3.13-1.8-4.82-1.13a44.94,44.94,0,0,1-7,1.91A26.59,26.59,0,0,1,381.1,468.68Z"/><path class="cls-17" d="M383.51,473.39s1.06,3,5.5,4.6c3.25,1.18,3.8,1,5.49.9a11.2,11.2,0,0,0,2.25-.22s.28-1.46-1.8-1.69c-1.16-.12-3.36-1.57-2.35-2.24S383.51,473.39,383.51,473.39Z"/><path class="cls-16" d="M331.31,443.45s-3.36-12.78-3.53-20,.67-20,.5-20.53-4.87-3.7-4.54-7.06,4.71-12.28,5.55-15,.84-12.11.84-12.11a32.27,32.27,0,0,0,17-1.52c9.25-3.36,20.86-10.76,20.86-10.76s6.23.67,1.51,28.76-6.16,29.76-6.39,38c-.33,12.11,7.07,25.73,7.74,36S333.67,447.15,331.31,443.45Z"/><path class="cls-36" d="M337.53,441.94c-13.26-5.34-21.86-4.88-53.49-1.52-7.24.78-22,1.78-29.27,5.89-6.56,3.7-8.4,13.39,24.44,19.86,30,5.91,68.71,8.71,78.68.66S350.49,447.15,337.53,441.94Z"/><path class="cls-37" d="M330.64,479.11s1.34.85,2,.34,2.52-2.69,5.55-1,3.87,3.7,6.73,3.87,9.92-1,11.94.67,5.21,7.91,4.37,12.28-2.18,4.88-3.53,2.86a11.14,11.14,0,0,0-3.2-3.53c-.67-.34-8.24-3.2-10.76-4.54a65.52,65.52,0,0,0-7.07-3.2c-1-.34-6.56-1.35-7.06-1.35S330.64,479.11,330.64,479.11Z"/><path class="cls-16" d="M356.88,483c-2-1.68-9.08-.5-11.94-.67s-3.7-2.19-6.73-3.87c-2.4-1.33-4.06-.55-5.57,1a2.85,2.85,0,0,1,.91-.2c1.67.2,5.29,3.1,7.94,4.21,2.85,1.19,8.09,2.14,10.35,3.69,1.44,1,2.15,4.4,2.31,7.32l.37.17a11.14,11.14,0,0,1,3.2,3.53c1.35,2,2.69,1.52,3.53-2.86S358.9,484.66,356.88,483Z"/><path class="cls-38" d="M331.31,486.35s-48.34-9.73-59.21-14-27.92-7.06-23.52-18.89c4-10.72,16-12,31.88-5.34s16,7.08,27.81,14.31A172,172,0,0,1,332,479.62Z"/><polygon class="cls-15" points="355.81 403.03 357.21 404.43 351.47 413.74 342.7 413.99 341.34 412.2 346.5 405.05 355.81 403.03"/><path class="cls-17" d="M327.45,411l11.95-3.18,4.34.4-1.89,3.11,3.89,2.37,4.53-.44,2.54-2.08.2,3a5.64,5.64,0,0,1-2,2.21c-1.38.86-6.72,6.14-6.72,6.14l-3-1.27-6.63-3.28-5.2,2.06Z"/><path class="cls-17" d="M270.59,474.4a2.11,2.11,0,0,0-.34,2.53c.84,1.34,2.52,2.35,2.19,4s-.68,2-2.53,3.37-5,3-6.89,6.89-4.38,7.57-8.92,8.25-8.07.33-10.26-.68-1-2.18.5-2.86a16,16,0,0,0,6.9-5.71c2.19-3.37,4.54-6.23,6.06-8.92s3.36-5.55,4.87-8.24S270.59,472.55,270.59,474.4Z"/><path class="cls-16" d="M264.45,484.08c-3,3.07-4.63,6.47-8.92,8.24-2.22.92-5.12,1-6.25.27a16.75,16.75,0,0,1-4.94,3.34c-1.51.68-2.69,1.86-.5,2.86s5.72,1.35,10.26.68,7.07-4.38,8.92-8.25,5-5.55,6.89-6.89,2.19-1.68,2.53-3.37c.27-1.39-.82-2.32-1.69-3.36C269.7,479.24,267.32,481.14,264.45,484.08Z"/><path class="cls-37" d="M369.49,450.85s-17.82-26.24-32.29-34.65-51.14-39-24.9,14.13c13.54,27.41,22.88,44.07,35.33,47.1S382.62,477.43,369.49,450.85Z"/><path class="cls-37" d="M258.14,475.75s22.54-44.07,28.93-53.83,17.5-29.27,22.2-18.84,8.42,18.17-1.34,32.3-9.76,14.13-22.21,26.58-16.48,14.8-16.48,14.8Z"/><polygon class="cls-39" points="510.79 453.7 512.36 459.69 505.09 461.11 504.52 454.27 510.79 453.7"/><path class="cls-17" d="M485.88,374.32,488.53,364s4.83-.59,5.39.37,5.86,3.34,5.86,3.34l1.21,6.41L497.81,377s-1.67-.63-1.13-1.91-1.49.23-2.21.65S488.14,379.78,485.88,374.32Z"/><path class="cls-15" d="M462.91,431.3,498,362.72l1.5,22.21s7,67.77-18,67.28S462.91,431.3,462.91,431.3Z"/><path class="cls-18" d="M487.81,455.79c1.52-.83,8.79-6.73,9.87-10.25,3.33-10.83-12.37-15.33-20.57-23.2-.44-.42-24.16-.54-24.16-.54l-28.77,21.51s17.95,20.43,44.25,20.17C473.64,463.43,475.18,462.63,487.81,455.79Z"/><path class="cls-15" d="M511.75,455.55s-7.09,2.85-7.38,1.29c-2.16-11.89-10.69-41-10.21-54.81.63-18.35.91-24.38.91-24.38s.34-11.58,3.19-15.33c5.87-7.72,19.67,3.53,19.67,3.53Z"/><path class="cls-40" d="M504.23,459l.72,5.44,4.52.32.45-1.62s3.67,1.86,4.7,1.92l14.07.82.12-2S514,459.74,512,456.62c-.05-.08-.81,1.11-1.79,1.37A46.78,46.78,0,0,1,504.23,459Z"/><path class="cls-39" d="M592.66,463.65s-2.54-1.22-3.51-5.87c-1.1-5.22.07-5.34.07-5.34l10.65,8.67Z"/><path class="cls-18" d="M595.31,456l-5.6,6.06S552,447.47,541.36,438.77c-14.24-11.59-22-22.2-22-22.2L526.92,398Z"/><path class="cls-18" d="M468.26,422.33,527,397.93l3.92,18.8s-47.5,56.63-61.71,36.11C457.33,435.61,468.26,422.33,468.26,422.33Z"/><path class="cls-17" d="M458.9,397.1l30.37-25.67,3.61-2.22a13.11,13.11,0,0,0-2.25,3.18c-1.86,5.49-10.5,23.36-15.74,28.81a84,84,0,0,1-14,11.45Z"/><path class="cls-41" d="M419.51,389.61l39.67,2.74,1.82,2.43,2-2.16,6.92,14.78-10,10-54.12-4.77s-15.12-3.36-18.19-19.34C386.07,385.35,416.26,389.53,419.51,389.61Z"/><path class="cls-39" d="M461.76,410.63s-.89-11.12-1.55-16.9l.79,1,2-2.17,2.35,5.14,2.29,7.78-2.56,2-1.19-2.12Z"/><path class="cls-40" d="M591.54,462.73l.8,5.22,4.61.22.4-1.63s3.72,1.76,4.75,1.8a12.82,12.82,0,0,0,2.75.09c2.3-.22,10.61-4.49,10.61-4.49l.07-2S610,465.24,605,463.28c-2.69-1-5-2.21-5.74-3.3,0-.07-.78,1.14-1.75,1.42C595,462.12,592.93,462.2,591.54,462.73Z"/><polygon class="cls-17" points="383.95 397.42 381.56 382.9 392 373.64 397.67 385.12 400.22 395.69 383.95 397.42"/><path class="cls-42" d="M423,396.31c17.47,16.86,46.87,23.61,46.87,23.61L454.7,463.71s-72-26.44-73.22-60C381.16,394.85,397.18,371.36,423,396.31Z"/><path class="cls-16" d="M410.42,388.57s39.32,14.12,19.54,49c-1.06,1.88-4.61,3-4.61,3l-4.81-3.47S439.09,406.33,410.42,388.57Z"/><polygon class="cls-41" points="380.38 391.55 382.2 396.56 402.23 385.03 397.2 382.6 380.38 391.55"/><path class="cls-15" d="M395.68,352.42a5.26,5.26,0,0,1-1.58,7.28l-16.74,10.77a5.28,5.28,0,0,1-7.29-1.59h0a5.27,5.27,0,0,1,1.59-7.28l16.74-10.76a5.26,5.26,0,0,1,7.28,1.58Z"/><path class="cls-15" d="M397.55,362.08a9.73,9.73,0,0,1-2.92,13.45l-8.74,5.62a9.73,9.73,0,0,1-13.45-2.92h0a9.74,9.74,0,0,1,2.92-13.46l8.74-5.62a9.73,9.73,0,0,1,13.45,2.93Z"/><path class="cls-17" d="M412.56,371,396.1,345.35c-2.63-4.07-3.31,2.13-7.39,4.76l-3.94,2.53a8.78,8.78,0,0,0-2.64,12.13L393.85,383Z"/><path class="cls-17" d="M389.07,368.39a3.85,3.85,0,0,1-1.15,5.33h0a3.85,3.85,0,0,1-5.34-1.16h0a3.86,3.86,0,0,1,1.16-5.33h0a3.86,3.86,0,0,1,5.33,1.16Z"/><path class="cls-17" d="M405.27,364.31a2.2,2.2,0,0,0,3,.72l1.52-1a2.2,2.2,0,0,0,.6-3.05s-9.56-7.58-10.57-6.94a3.64,3.64,0,0,0,.39,2.41Z"/><path class="cls-15" d="M401.32,376.21c-7.38,4.75-9.61,3-11.49.53,0,0,2.2,7.75,3.54,9.84l1.5,2.33c2.9,4.51,9.88,5.17,15.58,1.5l10.35-6.65-7.39-11.48-1.75-2.72Z"/><path class="cls-15" d="M408.6,364.81l-5.91,3.79a5.86,5.86,0,0,0-1.75,8.1,5.72,5.72,0,0,0,1,1.11L412.56,371Z"/><path class="cls-17" d="M404.3,374.89l1.05,1.64a1,1,0,0,0,1.35.29l4.79-3.08a1,1,0,0,0,.29-1.35l-1-1.64Z"/><path class="cls-15" d="M390.62,342.44l-15.15,9.75a3.51,3.51,0,0,0-1.05,4.85l3.79,5.91,18.11-11.64Z"/><path class="cls-15" d="M402.85,340.82a5.3,5.3,0,0,1-1.6,7.33L391,354.74a5.29,5.29,0,0,1-7.33-1.58h0a5.3,5.3,0,0,1,1.59-7.34l10.26-6.59a5.31,5.31,0,0,1,7.33,1.59Z"/><rect class="cls-15" x="381.69" y="357.35" width="4.87" height="12.81" transform="translate(-135.76 265.83) rotate(-32.77)"/><rect class="cls-15" x="379.84" y="349.16" width="14.33" height="15.09" transform="translate(-131.46 266.17) rotate(-32.76)"/><path class="cls-17" d="M388,365.27a7.26,7.26,0,0,1,2.18-10l3.14-2c3.37-2.17,6.93-.6,9.09,2.77h0a7.25,7.25,0,0,1-2.17,10L398,367.45a7.24,7.24,0,0,1-10-2.18Z"/><path class="cls-17" d="M412.08,445.46s11.92,15.09,29.55,14.78c3.05-.05,5.69,2.47,4.63,3.85-1.36,1.78-3.66,2.77-7.74,4-8.5,2.54-20.86,3.38-31.19-1.95-15.29-7.9-20.59-12-21.12-18.1S412.08,445.46,412.08,445.46Z"/><path class="cls-39" d="M387.56,399s-9.37-9.45-10.72,21.67c-.76,17.36,7.55,31.22,7.55,31.22l9.92,10,20.31-13.41-6-9.48-1.83.17a4.15,4.15,0,0,1-1.51-3.51c.34-2-1.06-11.28,1-28.78C407.19,398.77,389.67,398.85,387.56,399Z"/><path class="cls-41" d="M397,438.67l5.89-1.75,2.4-.56a4.46,4.46,0,0,0,1.53,2.77l-4.62.48-5.36,1.56-6.3,4.22Z"/><path class="cls-17" d="M439.49,461.33l8-7s4.32,2.24,4.25,3.35,3,6,3,6l-2.62,6-4.23.56s-1-1.46.15-2.22-1.36-.65-2.19-.7S438.28,467.12,439.49,461.33Z"/><rect class="cls-15" x="478.16" y="367.81" width="27.31" height="2.79" transform="translate(11.57 753.33) rotate(-75.55)"/></g></svg>